0
SECTION
2
HEADER
9
$ACADVER
1
AC1009
0
ENDSEC
0
SECTION
2
TABLES
0
TABLE
2
LAYER
70
9
0
LAYER
2
0
70
0
62
7
6
CONTINUOUS
0
LAYER
2
AC
70
0
62
1
6
CONTINUOUS
0
LAYER
2
DC_POS
70
0
62
3
6
CONTINUOUS
0
LAYER
2
DC_RETURN
70
0
62
5
6
CONTINUOUS
0
LAYER
2
BATTERY
70
0
62
5
6
CONTINUOUS
0
LAYER
2
FEEDERS
70
0
62
6
6
CONTINUOUS
0
LAYER
2
EQUIPMENT
70
0
62
7
6
CONTINUOUS
0
LAYER
2
TEXT
70
0
62
7
6
CONTINUOUS
0
LAYER
2
NOTES
70
0
62
8
6
CONTINUOUS
0
ENDTAB
0
ENDSEC
0
SECTION
2
ENTITIES
0
LINE
8
EQUIPMENT
10
10
20
10
30
0
11
410
21
10
31
0
62
7
0
LINE
8
EQUIPMENT
10
410
20
10
30
0
11
410
21
250
31
0
62
7
0
LINE
8
EQUIPMENT
10
410
20
250
30
0
11
10
21
250
31
0
62
7
0
LINE
8
EQUIPMENT
10
10
20
250
30
0
11
10
21
10
31
0
62
7
0
TEXT
8
TEXT
10
20
20
238.0
30
0
40
7
1
DC AUXILIARY SUPPLY SINGLE-LINE DIAGRAM
7
STANDARD
62
7
72
0
0
TEXT
8
TEXT
10
20
20
229.0
30
0
40
3.5
1
Concept-level 110 VDC auxiliary supply architecture for protection, control, AVR and emergency loads
7
STANDARD
62
8
72
0
0
LINE
8
AC
10
25
20
180
30
0
11
75
21
180
31
0
62
1
0
LINE
8
AC
10
75
20
180
30
0
11
75
21
208
31
0
62
1
0
LINE
8
AC
10
75
20
208
30
0
11
25
21
208
31
0
62
1
0
LINE
8
AC
10
25
20
208
30
0
11
25
21
180
31
0
62
1
0
TEXT
8
TEXT
10
50.0
20
198.0
30
0
40
4.5
1
400 VAC
7
STANDARD
62
1
72
1
73
2
11
50.0
21
198.0
31
0
0
TEXT
8
TEXT
10
50.0
20
191.25
30
0
40
4.5
1
Aux Supply
7
STANDARD
62
1
72
1
73
2
11
50.0
21
191.25
31
0
0
LINE
8
AC
10
95
20
180
30
0
11
147
21
180
31
0
62
1
0
LINE
8
AC
10
147
20
180
30
0
11
147
21
208
31
0
62
1
0
LINE
8
AC
10
147
20
208
30
0
11
95
21
208
31
0
62
1
0
LINE
8
AC
10
95
20
208
30
0
11
95
21
180
31
0
62
1
0
TEXT
8
TEXT
10
121.0
20
198.0
30
0
40
4.5
1
AC Isolator /
7
STANDARD
62
1
72
1
73
2
11
121.0
21
198.0
31
0
0
TEXT
8
TEXT
10
121.0
20
191.25
30
0
40
4.5
1
Feeder Protection
7
STANDARD
62
1
72
1
73
2
11
121.0
21
191.25
31
0
0
LINE
8
EQUIPMENT
10
175
20
175
30
0
11
240
21
175
31
0
62
30
0
LINE
8
EQUIPMENT
10
240
20
175
30
0
11
240
21
213
31
0
62
30
0
LINE
8
EQUIPMENT
10
240
20
213
30
0
11
175
21
213
31
0
62
30
0
LINE
8
EQUIPMENT
10
175
20
213
30
0
11
175
21
175
31
0
62
30
0
TEXT
8
TEXT
10
207.5
20
198.0
30
0
40
4.5
1
AC / DC Charger
7
STANDARD
62
30
72
1
73
2
11
207.5
21
198.0
31
0
0
TEXT
8
TEXT
10
207.5
20
191.25
30
0
40
4.5
1
110 VDC Output
7
STANDARD
62
30
72
1
73
2
11
207.5
21
191.25
31
0
0
LINE
8
DC_POS
10
270
20
175
30
0
11
340
21
175
31
0
62
3
0
LINE
8
DC_POS
10
340
20
175
30
0
11
340
21
213
31
0
62
3
0
LINE
8
DC_POS
10
340
20
213
30
0
11
270
21
213
31
0
62
3
0
LINE
8
DC_POS
10
270
20
213
30
0
11
270
21
175
31
0
62
3
0
TEXT
8
TEXT
10
305.0
20
198.0
30
0
40
4.5
1
110 VDC
7
STANDARD
62
3
72
1
73
2
11
305.0
21
198.0
31
0
0
TEXT
8
TEXT
10
305.0
20
191.25
30
0
40
4.5
1
Distribution Board
7
STANDARD
62
3
72
1
73
2
11
305.0
21
191.25
31
0
0
LINE
8
BATTERY
10
175
20
112
30
0
11
240
21
112
31
0
62
5
0
LINE
8
BATTERY
10
240
20
112
30
0
11
240
21
147
31
0
62
5
0
LINE
8
BATTERY
10
240
20
147
30
0
11
175
21
147
31
0
62
5
0
LINE
8
BATTERY
10
175
20
147
30
0
11
175
21
112
31
0
62
5
0
TEXT
8
TEXT
10
207.5
20
133.5
30
0
40
4.5
1
110 VDC
7
STANDARD
62
5
72
1
73
2
11
207.5
21
133.5
31
0
0
TEXT
8
TEXT
10
207.5
20
126.75
30
0
40
4.5
1
Battery Bank
7
STANDARD
62
5
72
1
73
2
11
207.5
21
126.75
31
0
0
LINE
8
AC
10
75
20
194
30
0
11
95
21
194
31
0
62
1
0
TEXT
8
TEXT
10
85
20
201.0
30
0
40
3
1
400 VAC
7
STANDARD
62
1
72
1
73
2
11
85
21
201.0
31
0
0
LINE
8
AC
10
147
20
194
30
0
11
175
21
194
31
0
62
1
0
TEXT
8
TEXT
10
160
20
201.0
30
0
40
3
1
AC feeder
7
STANDARD
62
1
72
1
73
2
11
160
21
201.0
31
0
0
LINE
8
DC_POS
10
240
20
194
30
0
11
270
21
194
31
0
62
3
0
TEXT
8
TEXT
10
255
20
201.0
30
0
40
3
1
110 VDC output
7
STANDARD
62
3
72
1
73
2
11
255
21
201.0
31
0
0
LINE
8
DC_POS
10
340
20
202
30
0
11
398
21
202
31
0
62
3
0
LINE
8
DC_RETURN
10
340
20
183
30
0
11
398
21
183
31
0
62
5
0
TEXT
8
TEXT
10
369
20
208.0
30
0
40
3.2
1
+110 VDC BUS
7
STANDARD
62
3
72
1
73
2
11
369
21
208.0
31
0
0
TEXT
8
TEXT
10
369
20
177.0
30
0
40
3.2
1
0 V / DC RETURN BUS
7
STANDARD
62
5
72
1
73
2
11
369
21
177.0
31
0
0
LINE
8
BATTERY
10
207
20
147
30
0
11
207
21
158
31
0
62
5
0
LINE
8
BATTERY
10
207
20
158
30
0
11
352
21
158
31
0
62
5
0
LINE
8
BATTERY
10
352
20
158
30
0
11
352
21
202
31
0
62
5
0
LINE
8
DC_RETURN
10
215
20
147
30
0
11
215
21
151
31
0
62
5
0
LINE
8
DC_RETURN
10
215
20
151
30
0
11
360
21
151
31
0
62
5
0
LINE
8
DC_RETURN
10
360
20
151
30
0
11
360
21
183
31
0
62
5
0
TEXT
8
TEXT
10
276
20
163.0
30
0
40
3
1
Battery connection
7
STANDARD
62
5
72
1
73
2
11
276
21
163.0
31
0
0
LINE
8
DC_POS
10
350
20
202
30
0
11
350
21
105
31
0
62
3
0
LINE
8
DC_RETURN
10
360
20
183
30
0
11
360
21
97
31
0
62
5
0
LINE
8
DC_POS
10
350
20
105
30
0
11
49.0
21
105
31
0
62
3
0
LINE
8
DC_RETURN
10
360
20
97
30
0
11
52.0
21
97
31
0
62
5
0
LINE
8
DC_POS
10
49.0
20
105
30
0
11
385.0
21
105
31
0
62
3
0
LINE
8
DC_RETURN
10
52.0
20
97
30
0
11
388.0
21
97
31
0
62
5
0
TEXT
8
TEXT
10
280
20
112.0
30
0
40
3.2
1
Outgoing DC feeders
7
STANDARD
62
6
72
1
73
2
11
280
21
112.0
31
0
0
LINE
8
FEEDERS
10
25
20
55
30
0
11
73
21
55
31
0
62
6
0
LINE
8
FEEDERS
10
73
20
55
30
0
11
73
21
85
31
0
62
6
0
LINE
8
FEEDERS
10
73
20
85
30
0
11
25
21
85
31
0
62
6
0
LINE
8
FEEDERS
10
25
20
85
30
0
11
25
21
55
31
0
62
6
0
TEXT
8
TEXT
10
49.0
20
76.0
30
0
40
3.2
1
F1
7
STANDARD
62
7
72
1
73
2
11
49.0
21
76.0
31
0
0
TEXT
8
TEXT
10
49.0
20
71.2
30
0
40
3.2
1
Protection
7
STANDARD
62
7
72
1
73
2
11
49.0
21
71.2
31
0
0
TEXT
8
TEXT
10
49.0
20
66.4
30
0
40
3.2
1
Relay Panel
7
STANDARD
62
7
72
1
73
2
11
49.0
21
66.4
31
0
0
LINE
8
FEEDERS
10
49.0
20
105
30
0
11
49.0
21
85
31
0
62
6
0
LINE
8
DC_RETURN
10
52.0
20
97
30
0
11
52.0
21
85
31
0
62
5
0
TEXT
8
TEXT
10
44.0
20
111.0
30
0
40
2.5
1
F1
7
STANDARD
62
6
72
1
73
2
11
44.0
21
111.0
31
0
0
LINE
8
FEEDERS
10
81
20
55
30
0
11
129
21
55
31
0
62
6
0
LINE
8
FEEDERS
10
129
20
55
30
0
11
129
21
85
31
0
62
6
0
LINE
8
FEEDERS
10
129
20
85
30
0
11
81
21
85
31
0
62
6
0
LINE
8
FEEDERS
10
81
20
85
30
0
11
81
21
55
31
0
62
6
0
TEXT
8
TEXT
10
105.0
20
76.0
30
0
40
3.2
1
F2
7
STANDARD
62
7
72
1
73
2
11
105.0
21
76.0
31
0
0
TEXT
8
TEXT
10
105.0
20
71.2
30
0
40
3.2
1
Breaker
7
STANDARD
62
7
72
1
73
2
11
105.0
21
71.2
31
0
0
TEXT
8
TEXT
10
105.0
20
66.4
30
0
40
3.2
1
Trip Circuit
7
STANDARD
62
7
72
1
73
2
11
105.0
21
66.4
31
0
0
LINE
8
FEEDERS
10
105.0
20
105
30
0
11
105.0
21
85
31
0
62
6
0
LINE
8
DC_RETURN
10
108.0
20
97
30
0
11
108.0
21
85
31
0
62
5
0
TEXT
8
TEXT
10
100.0
20
111.0
30
0
40
2.5
1
F2
7
STANDARD
62
6
72
1
73
2
11
100.0
21
111.0
31
0
0
LINE
8
FEEDERS
10
137
20
55
30
0
11
185
21
55
31
0
62
6
0
LINE
8
FEEDERS
10
185
20
55
30
0
11
185
21
85
31
0
62
6
0
LINE
8
FEEDERS
10
185
20
85
30
0
11
137
21
85
31
0
62
6
0
LINE
8
FEEDERS
10
137
20
85
30
0
11
137
21
55
31
0
62
6
0
TEXT
8
TEXT
10
161.0
20
76.0
30
0
40
3.2
1
F3
7
STANDARD
62
7
72
1
73
2
11
161.0
21
76.0
31
0
0
TEXT
8
TEXT
10
161.0
20
71.2
30
0
40
3.2
1
Breaker
7
STANDARD
62
7
72
1
73
2
11
161.0
21
71.2
31
0
0
TEXT
8
TEXT
10
161.0
20
66.4
30
0
40
3.2
1
Close Circuit
7
STANDARD
62
7
72
1
73
2
11
161.0
21
66.4
31
0
0
LINE
8
FEEDERS
10
161.0
20
105
30
0
11
161.0
21
85
31
0
62
6
0
LINE
8
DC_RETURN
10
164.0
20
97
30
0
11
164.0
21
85
31
0
62
5
0
TEXT
8
TEXT
10
156.0
20
111.0
30
0
40
2.5
1
F3
7
STANDARD
62
6
72
1
73
2
11
156.0
21
111.0
31
0
0
LINE
8
FEEDERS
10
193
20
55
30
0
11
241
21
55
31
0
62
6
0
LINE
8
FEEDERS
10
241
20
55
30
0
11
241
21
85
31
0
62
6
0
LINE
8
FEEDERS
10
241
20
85
30
0
11
193
21
85
31
0
62
6
0
LINE
8
FEEDERS
10
193
20
85
30
0
11
193
21
55
31
0
62
6
0
TEXT
8
TEXT
10
217.0
20
76.0
30
0
40
3.2
1
F4
7
STANDARD
62
7
72
1
73
2
11
217.0
21
76.0
31
0
0
TEXT
8
TEXT
10
217.0
20
71.2
30
0
40
3.2
1
SCADA / RTU
7
STANDARD
62
7
72
1
73
2
11
217.0
21
71.2
31
0
0
TEXT
8
TEXT
10
217.0
20
66.4
30
0
40
3.2
1
Communication
7
STANDARD
62
7
72
1
73
2
11
217.0
21
66.4
31
0
0
LINE
8
FEEDERS
10
217.0
20
105
30
0
11
217.0
21
85
31
0
62
6
0
LINE
8
DC_RETURN
10
220.0
20
97
30
0
11
220.0
21
85
31
0
62
5
0
TEXT
8
TEXT
10
212.0
20
111.0
30
0
40
2.5
1
F4
7
STANDARD
62
6
72
1
73
2
11
212.0
21
111.0
31
0
0
LINE
8
FEEDERS
10
249
20
55
30
0
11
297
21
55
31
0
62
6
0
LINE
8
FEEDERS
10
297
20
55
30
0
11
297
21
85
31
0
62
6
0
LINE
8
FEEDERS
10
297
20
85
30
0
11
249
21
85
31
0
62
6
0
LINE
8
FEEDERS
10
249
20
85
30
0
11
249
21
55
31
0
62
6
0
TEXT
8
TEXT
10
273.0
20
76.0
30
0
40
3.2
1
F5
7
STANDARD
62
7
72
1
73
2
11
273.0
21
76.0
31
0
0
TEXT
8
TEXT
10
273.0
20
71.2
30
0
40
3.2
1
AVR / Excitation
7
STANDARD
62
7
72
1
73
2
11
273.0
21
71.2
31
0
0
TEXT
8
TEXT
10
273.0
20
66.4
30
0
40
3.2
1
Aux Load
7
STANDARD
62
7
72
1
73
2
11
273.0
21
66.4
31
0
0
LINE
8
FEEDERS
10
273.0
20
105
30
0
11
273.0
21
85
31
0
62
6
0
LINE
8
DC_RETURN
10
276.0
20
97
30
0
11
276.0
21
85
31
0
62
5
0
TEXT
8
TEXT
10
268.0
20
111.0
30
0
40
2.5
1
F5
7
STANDARD
62
6
72
1
73
2
11
268.0
21
111.0
31
0
0
LINE
8
FEEDERS
10
305
20
55
30
0
11
353
21
55
31
0
62
6
0
LINE
8
FEEDERS
10
353
20
55
30
0
11
353
21
85
31
0
62
6
0
LINE
8
FEEDERS
10
353
20
85
30
0
11
305
21
85
31
0
62
6
0
LINE
8
FEEDERS
10
305
20
85
30
0
11
305
21
55
31
0
62
6
0
TEXT
8
TEXT
10
329.0
20
76.0
30
0
40
3.2
1
F6
7
STANDARD
62
7
72
1
73
2
11
329.0
21
76.0
31
0
0
TEXT
8
TEXT
10
329.0
20
71.2
30
0
40
3.2
1
Annunciation /
7
STANDARD
62
7
72
1
73
2
11
329.0
21
71.2
31
0
0
TEXT
8
TEXT
10
329.0
20
66.4
30
0
40
3.2
1
Alarm
7
STANDARD
62
7
72
1
73
2
11
329.0
21
66.4
31
0
0
LINE
8
FEEDERS
10
329.0
20
105
30
0
11
329.0
21
85
31
0
62
6
0
LINE
8
DC_RETURN
10
332.0
20
97
30
0
11
332.0
21
85
31
0
62
5
0
TEXT
8
TEXT
10
324.0
20
111.0
30
0
40
2.5
1
F6
7
STANDARD
62
6
72
1
73
2
11
324.0
21
111.0
31
0
0
LINE
8
FEEDERS
10
361
20
55
30
0
11
409
21
55
31
0
62
6
0
LINE
8
FEEDERS
10
409
20
55
30
0
11
409
21
85
31
0
62
6
0
LINE
8
FEEDERS
10
409
20
85
30
0
11
361
21
85
31
0
62
6
0
LINE
8
FEEDERS
10
361
20
85
30
0
11
361
21
55
31
0
62
6
0
TEXT
8
TEXT
10
385.0
20
76.0
30
0
40
3.2
1
F7
7
STANDARD
62
7
72
1
73
2
11
385.0
21
76.0
31
0
0
TEXT
8
TEXT
10
385.0
20
71.2
30
0
40
3.2
1
Emergency
7
STANDARD
62
7
72
1
73
2
11
385.0
21
71.2
31
0
0
TEXT
8
TEXT
10
385.0
20
66.4
30
0
40
3.2
1
DC Loads
7
STANDARD
62
7
72
1
73
2
11
385.0
21
66.4
31
0
0
LINE
8
FEEDERS
10
385.0
20
105
30
0
11
385.0
21
85
31
0
62
6
0
LINE
8
DC_RETURN
10
388.0
20
97
30
0
11
388.0
21
85
31
0
62
5
0
TEXT
8
TEXT
10
380.0
20
111.0
30
0
40
2.5
1
F7
7
STANDARD
62
6
72
1
73
2
11
380.0
21
111.0
31
0
0
LINE
8
EQUIPMENT
10
20
20
18
30
0
11
145
21
18
31
0
62
7
0
LINE
8
EQUIPMENT
10
145
20
18
30
0
11
145
21
46
31
0
62
7
0
LINE
8
EQUIPMENT
10
145
20
46
30
0
11
20
21
46
31
0
62
7
0
LINE
8
EQUIPMENT
10
20
20
46
30
0
11
20
21
18
31
0
62
7
0
TEXT
8
TEXT
10
25
20
41.0
30
0
40
4
1
Legend
7
STANDARD
62
7
72
0
0
LINE
8
TEXT
10
28
20
36
30
0
11
42
21
36
31
0
62
1
0
TEXT
8
TEXT
10
46
20
34.8
30
0
40
2.7
1
AC circuit
7
STANDARD
62
7
72
0
0
LINE
8
TEXT
10
28
20
31
30
0
11
42
21
31
31
0
62
3
0
TEXT
8
TEXT
10
46
20
29.8
30
0
40
2.7
1
110 VDC positive
7
STANDARD
62
7
72
0
0
LINE
8
TEXT
10
28
20
26
30
0
11
42
21
26
31
0
62
5
0
TEXT
8
TEXT
10
46
20
24.8
30
0
40
2.7
1
DC return
7
STANDARD
62
7
72
0
0
LINE
8
TEXT
10
28
20
21
30
0
11
42
21
21
31
0
62
6
0
TEXT
8
TEXT
10
46
20
19.8
30
0
40
2.7
1
Outgoing DC feeder
7
STANDARD
62
7
72
0
0
LINE
8
NOTES
10
160
20
18
30
0
11
398
21
18
31
0
62
8
0
LINE
8
NOTES
10
398
20
18
30
0
11
398
21
50
31
0
62
8
0
LINE
8
NOTES
10
398
20
50
30
0
11
160
21
50
31
0
62
8
0
LINE
8
NOTES
10
160
20
50
30
0
11
160
21
18
31
0
62
8
0
TEXT
8
TEXT
10
165
20
43.0
30
0
40
4
1
Engineering Notes
7
STANDARD
62
7
72
0
0
MTEXT
8
TEXT
10
165
20
38
30
0
40
2.6
41
225
1
1. Concept-level SLD only; final ratings and cable sizes require project-specific design data.\P2. Battery/charger sizing shall be checked against load register, backup duration and recharge time.\P3. Feeder labels correspond to workbook load categories and traceability matrix.
62
7
0
LINE
8
EQUIPMENT
10
292
20
229
30
0
11
398
21
229
31
0
62
7
0
LINE
8
EQUIPMENT
10
398
20
229
30
0
11
398
21
247
31
0
62
7
0
LINE
8
EQUIPMENT
10
398
20
247
30
0
11
292
21
247
31
0
62
7
0
LINE
8
EQUIPMENT
10
292
20
247
30
0
11
292
21
229
31
0
62
7
0
LINE
8
EQUIPMENT
10
328
20
229
30
0
11
328
21
247
31
0
62
7
0
LINE
8
EQUIPMENT
10
362
20
229
30
0
11
362
21
247
31
0
62
7
0
TEXT
8
TEXT
10
294
20
239.0
30
0
40
2.5
1
Drawing: SLD-DC-AUX-001
7
STANDARD
62
7
72
0
0
TEXT
8
TEXT
10
331
20
239.0
30
0
40
2.5
1
Rev: 02
7
STANDARD
62
7
72
0
0
TEXT
8
TEXT
10
365
20
239.0
30
0
40
2.5
1
Status: Concept
7
STANDARD
62
7
72
0
0
ENDSEC
0
EOF